# xmcd
#
# Track frame offsets:
#	150
#	18636
#	36925
#	52355
#	71335
#	92562
#	111142
#	128991
#	146289
#	164670
#	181697
#	200559
#	220866
#	240455
#	254373
#
# Disc length: 3597 seconds
#
# Revision: 0
# Processed by: cddbd v1.5.2PL0 Copyright (c) Steve Scherf et al.
# Submitted via: EasyCDDAExtractor 15.3.0.1
#
DISCID=da0e0b0f
DTITLE=Various Artist - Disco polo new hits 5
DYEAR=2008
DGENRE=disco polo
TTITLE0=Drossel - Mariolka pokaz mi malenka
TTITLE1=Spike - Gorace ciala
TTITLE2=Milia - Mezu moj skarbie moj
TTITLE3=Masters - Zabiore cie wlasnie tam
TTITLE4=Effect - Tylko ona
TTITLE5=Dj velu and drossel - Lato lato wokol nas
TTITLE6=Vabank - To moja gra
TTITLE7=Julio and holiday - Jestes piekna
TTITLE8=Avanti - Chcesz czy nie
TTITLE9=Dj velu and libertus - Teraz mocno przytul mnie
TTITLE10=Neo - Uwierzmy w siebie
TTITLE11=Effect - Kochaj
TTITLE12=Fantastic boys - Granatowe oczy
TTITLE13=Dj velu - Jumbo ero erotico
TTITLE14=Goga - Mezu moj skarbie moj
EXTD=
EXTT0=
EXTT1=
EXTT2=
EXTT3=
EXTT4=
EXTT5=
EXTT6=
EXTT7=
EXTT8=
EXTT9=
EXTT10=
EXTT11=
EXTT12=
EXTT13=
EXTT14=
PLAYORDER=
